# xmcd
#
# Track frame offsets: 
#        150
#        13263
#        29838
#        45475
#        57759
#        73377
#        88565
#        104538
#        116465
#        131164
#        144288
#        160265
#        176052
#        189326
#        206538
#        220185
#        238856
#        250629
#        267128
#        282656
#        299602
#        314745
#        334710
#
# Disc length: 4704 seconds
#
# Revision: 2
# Processed by: cddbd v1.5.1PL2 Copyright (c) Steve Scherf et al.
# Submitted via: ExactAudioCopy v0.95b4
#
DISCID=6c125e17
DTITLE=Tanya Tucker - The Upper 48 Hits 1972-1997 [Disc 2]
DYEAR=2002
DGENRE=Country
TTITLE0=One Love At A Time
TTITLE1=I Won't Take Less Than Your Love (with Paul Davis and Paul Overs
TTITLE1=treet)
TTITLE2=If It Don't Come Easy
TTITLE3=Strong Enough To Bend
TTITLE4=Highway Robbery
TTITLE5=Call On Me
TTITLE6=My Arms Stay Open All Night
TTITLE7=Walking Shoes
TTITLE8=Don't Go Out With Him (with T. Graham Brown)
TTITLE9=It Won't Be Me
TTITLE10=Oh What It Did To Me
TTITLE11=Down To My Last Teardrop
TTITLE12=(Without You) What Do I Do With Me?
TTITLE13=Some Kind Of Trouble
TTITLE14=If Your Heart Ain't Busy Tonight
TTITLE15=Two Sparrows In A Hurricane
TTITLE16=It's A Little To Late
TTITLE17=Tell Me About It (with Delbert McClinton)
TTITLE18=Soon
TTITLE19=We Don't Have To Do This
TTITLE20=Hangin' In
TTITLE21=You Just Watch Me
TTITLE22=Little Things
EXTD=
EXTT0=
EXTT1=
EXTT2=
EXTT3=
EXTT4=
EXTT5=
EXTT6=
EXTT7=
EXTT8=
EXTT9=
EXTT10=
EXTT11=
EXTT12=
EXTT13=
EXTT14=
EXTT15=
EXTT16=
EXTT17=
EXTT18=
EXTT19=
EXTT20=
EXTT21=
EXTT22=
PLAYORDER=
